# xmcd
#
# Track frame offsets: 
#        183
#        17333
#        41873
#        56018
#
# Disc length: 1076 seconds
#
# Revision: 0
# Processed by: cddbd v1.5.2PL0 Copyright (c) Steve Scherf et al.
# Submitted via: ExactAudioCopy v0.99pb4
#
DISCID=2b043204
DTITLE=Gloria Gaynor - Reach out I'll be there
DYEAR=1900
DGENRE=
TTITLE0=Reach out I'll be there (Radio Mix)
TTITLE1=Reach out I'll be there (Extended)
TTITLE2=Mama san
TTITLE3=Reach out I'll be there (Club)
EXTD=
EXTT0=
EXTT1=
EXTT2=
EXTT3=
PLAYORDER=
